<svg width="24" height="24" viewBox="0 0 24 24" fill="none" xmlns="http://www.w3.org/2000/svg">
<path fill-rule="evenodd" clip-rule="evenodd" d="M11.0233 4C9.15286 4 7.359 4.74304 6.03637 6.06567C4.71375 7.38829 3.9707 9.18216 3.9707 11.0526C3.9707 12.9231 4.71375 14.717 6.03637 16.0396C7.359 17.3622 9.15286 18.1053 11.0233 18.1053C12.8938 18.1053 14.6877 17.3622 16.0103 16.0396C17.3329 14.717 18.076 12.9231 18.076 11.0526C18.076 9.18216 17.3329 7.38829 16.0103 6.06567C14.6877 4.74304 12.8938 4 11.0233 4ZM4.62216 4.65145C6.31986 2.95376 8.62243 2 11.0233 2C13.4242 2 15.7268 2.95376 17.4245 4.65145C19.1222 6.34915 20.076 8.65172 20.076 11.0526C20.076 13.1163 19.3713 15.1073 18.0953 16.704L20.972 19.5858C21.3621 19.9767 21.3616 20.6098 20.9707 21C20.5798 21.3902 19.9467 21.3896 19.5565 20.9987L16.6818 18.1189C15.0839 19.3985 13.0901 20.1053 11.0233 20.1053C8.62243 20.1053 6.31986 19.1515 4.62216 17.4538C2.92446 15.7561 1.9707 13.4535 1.9707 11.0526C1.9707 8.65172 2.92446 6.34915 4.62216 4.65145Z" fill="#FF303C"/>
</svg>
